<svg aria-hidden="true" style="position: absolute; width: 0; height: 0; overflow: hidden;" version="1.1" xmlns="http://www.w3.org/2000/svg" xmlns:xlink="http://www.w3.org/1999/xlink">
<defs>
<symbol id="icon-arrow_right" viewBox="0 0 32 32">
<path fill="none" opacity="0.5" stroke="#fff" style="stroke: var(--color1, #fff)" stroke-linejoin="miter" stroke-linecap="butt" stroke-miterlimit="4" stroke-width="0.8" d="M31.6 16c0 8.616-6.984 15.6-15.6 15.6s-15.6-6.984-15.6-15.6c0-8.616 6.984-15.6 15.6-15.6s15.6 6.984 15.6 15.6z"></path>
<path fill="#fff" style="fill: var(--color1, #fff)" d="M18.119 16.4c0-0.050-0.025-0.106-0.062-0.144l-2.912-2.912c-0.038-0.038-0.094-0.062-0.144-0.062s-0.106 0.025-0.144 0.062l-0.312 0.312c-0.038 0.038-0.062 0.094-0.062 0.144s0.025 0.106 0.062 0.144l2.456 2.456-2.456 2.456c-0.038 0.038-0.062 0.094-0.062 0.144 0 0.056 0.025 0.106 0.062 0.144l0.312 0.312c0.038 0.038 0.094 0.062 0.144 0.062s0.106-0.025 0.144-0.062l2.912-2.912c0.038-0.038 0.062-0.094 0.062-0.144z"></path>
</symbol>
<symbol id="icon-arrow_left" viewBox="0 0 32 32">
<path fill="none" opacity="0.5" stroke="#fff" style="stroke: var(--color1, #fff)" stroke-linejoin="miter" stroke-linecap="butt" stroke-miterlimit="4" stroke-width="0.8" d="M31.6 16c0 8.616-6.984 15.6-15.6 15.6s-15.6-6.984-15.6-15.6c0-8.616 6.984-15.6 15.6-15.6s15.6 6.984 15.6 15.6z"></path>
<path fill="#fff" style="fill: var(--color1, #fff)" d="M17.519 13.8c0-0.056-0.025-0.106-0.062-0.144l-0.312-0.312c-0.038-0.038-0.094-0.062-0.144-0.062s-0.106 0.025-0.144 0.062l-2.912 2.912c-0.038 0.038-0.062 0.094-0.062 0.144s0.025 0.106 0.062 0.144l2.912 2.912c0.038 0.038 0.094 0.062 0.144 0.062s0.106-0.025 0.144-0.062l0.312-0.312c0.038-0.038 0.062-0.094 0.062-0.144s-0.025-0.106-0.062-0.144l-2.456-2.456 2.456-2.456c0.038-0.038 0.062-0.094 0.062-0.144z"></path>
</symbol>
<symbol id="icon-location" viewBox="0 0 21 32">
<path fill="#2c4058" style="fill: var(--color2, #2c4058)" d="M14.694 10.286c0 2.698-2.2 4.898-4.898 4.898s-4.898-2.2-4.898-4.898c0-2.698 2.2-4.898 4.898-4.898s4.898 2.2 4.898 4.898zM19.592 10.286c0-5.415-4.381-9.796-9.796-9.796s-9.796 4.381-9.796 9.796c0 1.167 0.134 2.372 0.631 3.425l6.983 14.809c0.383 0.842 1.263 1.358 2.181 1.358s1.798-0.517 2.2-1.358l6.964-14.809c0.497-1.052 0.631-2.258 0.631-3.425z"></path>
</symbol>
<symbol id="icon-lupa" viewBox="0 0 32 32">
<path fill="#fff" style="fill: var(--color1, #fff)" d="M13 24c1.445 0 2.875-0.285 4.209-0.837s2.547-1.363 3.569-2.384c1.021-1.021 1.832-2.234 2.384-3.569s0.837-2.765 0.837-4.21-0.285-2.875-0.837-4.21c-0.553-1.335-1.363-2.547-2.384-3.569s-2.234-1.832-3.569-2.384-2.765-0.837-4.21-0.837c-2.917 0-5.715 1.159-7.778 3.222s-3.222 4.861-3.222 7.778c0 2.917 1.159 5.715 3.222 7.778s4.861 3.222 7.778 3.222zM26 13c0 3.448-1.37 6.754-3.808 9.192s-5.745 3.808-9.192 3.808-6.754-1.37-9.192-3.808c-2.438-2.438-3.808-5.745-3.808-9.192s1.37-6.754 3.808-9.192c2.438-2.438 5.745-3.808 9.192-3.808s6.754 1.37 9.192 3.808c2.438 2.438 3.808 5.745 3.808 9.192z"></path>
<path fill="#fff" style="fill: var(--color1, #fff)" d="M20.688 23.484c0.060 0.080 0.124 0.156 0.196 0.23l7.7 7.7c0.375 0.375 0.884 0.586 1.414 0.586s1.039-0.21 1.415-0.585c0.375-0.375 0.586-0.884 0.586-1.414s-0.21-1.039-0.585-1.415l-7.7-7.7c-0.072-0.072-0.148-0.139-0.23-0.2-0.785 1.070-1.727 2.014-2.796 2.8v-0.002z"></path>
<path fill="#fff" style="fill: var(--color1, #fff)" d="M13 6c0.265 0 0.52 0.105 0.707 0.293s0.293 0.442 0.293 0.707v5h5c0.265 0 0.52 0.105 0.707 0.293s0.293 0.442 0.293 0.707c0 0.265-0.105 0.52-0.293 0.707s-0.442 0.293-0.707 0.293h-5v5c0 0.265-0.105 0.52-0.293 0.707s-0.442 0.293-0.707 0.293c-0.265 0-0.52-0.105-0.707-0.293s-0.293-0.442-0.293-0.707v-5h-5c-0.265 0-0.52-0.105-0.707-0.293s-0.293-0.442-0.293-0.707c0-0.265 0.105-0.52 0.293-0.707s0.442-0.293 0.707-0.293h5v-5c0-0.265 0.105-0.52 0.293-0.707s0.442-0.293 0.707-0.293z"></path>
</symbol>
<symbol id="icon-arrow_down" viewBox="0 0 34 32">
<path fill="#fff" style="fill: var(--color1, #fff)" d="M19.924 15.289c0.045 0.045 0.067 0.096 0.067 0.154s-0.022 0.109-0.067 0.154l-3.121 3.121c-0.045 0.045-0.096 0.067-0.154 0.067s-0.109-0.022-0.154-0.067l-3.121-3.121c-0.045-0.045-0.067-0.096-0.067-0.154s0.022-0.109 0.067-0.154l0.335-0.335c0.045-0.045 0.096-0.067 0.154-0.067s0.109 0.022 0.154 0.067l2.632 2.632 2.632-2.632c0.045-0.045 0.096-0.067 0.154-0.067s0.109 0.022 0.154 0.067l0.335 0.335z"></path>
<path fill="none" opacity="0.7" stroke="#fff" style="stroke: var(--color1, #fff)" stroke-linejoin="miter" stroke-linecap="butt" stroke-miterlimit="4" stroke-width="0.8" d="M32.436 16c0 8.615-6.999 15.6-15.635 15.6s-15.635-6.985-15.635-15.6c0-8.615 6.999-15.6 15.635-15.6s15.635 6.985 15.635 15.6z"></path>
</symbol>
<symbol id="icon-inst" viewBox="0 0 32 32">
<path fill="#fff" style="fill: var(--color1, #fff)" d="M13.975 13.975c0.567-0.567 1.25-0.85 2.050-0.85s1.475 0.283 2.025 0.85c0.567 0.55 0.85 1.225 0.85 2.025s-0.283 1.483-0.85 2.050c-0.55 0.55-1.225 0.825-2.025 0.825s-1.483-0.275-2.050-0.825c-0.55-0.567-0.825-1.25-0.825-2.050s0.275-1.475 0.825-2.025zM14.7 17.325c0.367 0.367 0.808 0.55 1.325 0.55s0.958-0.183 1.325-0.55c0.367-0.367 0.55-0.808 0.55-1.325s-0.183-0.958-0.55-1.325c-0.367-0.367-0.808-0.55-1.325-0.55s-0.958 0.183-1.325 0.55c-0.367 0.367-0.55 0.808-0.55 1.325s0.183 0.958 0.55 1.325zM19.475 12.55c0.133 0.117 0.2 0.267 0.2 0.45s-0.067 0.342-0.2 0.475c-0.117 0.133-0.267 0.2-0.45 0.2s-0.342-0.067-0.475-0.2c-0.133-0.133-0.2-0.292-0.2-0.475s0.067-0.333 0.2-0.45c0.133-0.133 0.292-0.2 0.475-0.2s0.333 0.067 0.45 0.2zM21.6 13.7c0.017 0.45 0.025 1.217 0.025 2.3s-0.008 1.85-0.025 2.3c-0.050 1.017-0.358 1.808-0.925 2.375-0.55 0.55-1.333 0.842-2.35 0.875-0.45 0.033-1.217 0.050-2.3 0.050s-1.85-0.017-2.3-0.050c-1.017-0.050-1.8-0.35-2.35-0.9-0.217-0.2-0.392-0.433-0.525-0.7s-0.233-0.525-0.3-0.775c-0.050-0.25-0.075-0.542-0.075-0.875-0.033-0.45-0.050-1.217-0.050-2.3s0.017-1.858 0.050-2.325c0.050-1 0.35-1.775 0.9-2.325 0.55-0.567 1.333-0.875 2.35-0.925 0.45-0.017 1.217-0.025 2.3-0.025s1.85 0.008 2.3 0.025c1.017 0.050 1.8 0.358 2.35 0.925 0.567 0.55 0.875 1.333 0.925 2.35zM20.4 19.3c0.050-0.133 0.092-0.3 0.125-0.5 0.033-0.217 0.058-0.467 0.075-0.75 0.017-0.3 0.025-0.542 0.025-0.725s0-0.442 0-0.775 0-0.517 0-0.55c0-0.050 0-0.233 0-0.55 0-0.333 0-0.592 0-0.775s-0.008-0.417-0.025-0.7c-0.017-0.3-0.042-0.55-0.075-0.75-0.033-0.217-0.075-0.392-0.125-0.525-0.2-0.517-0.558-0.875-1.075-1.075-0.133-0.050-0.308-0.092-0.525-0.125-0.2-0.033-0.45-0.058-0.75-0.075-0.283-0.017-0.517-0.025-0.7-0.025-0.167 0-0.425 0-0.775 0-0.333 0-0.517 0-0.55 0s-0.217 0-0.55 0c-0.333 0-0.592 0-0.775 0s-0.425 0.008-0.725 0.025c-0.283 0.017-0.533 0.042-0.75 0.075-0.2 0.033-0.367 0.075-0.5 0.125-0.517 0.2-0.875 0.558-1.075 1.075-0.050 0.133-0.092 0.308-0.125 0.525-0.033 0.2-0.058 0.45-0.075 0.75-0.017 0.283-0.025 0.517-0.025 0.7 0 0.167 0 0.425 0 0.775 0 0.333 0 0.517 0 0.55 0 0.067 0 0.225 0 0.475 0 0.233 0 0.433 0 0.6 0 0.15 0 0.35 0 0.6 0.017 0.25 0.033 0.467 0.050 0.65 0.017 0.167 0.042 0.342 0.075 0.525s0.067 0.333 0.1 0.45c0.217 0.517 0.575 0.875 1.075 1.075 0.133 0.050 0.3 0.092 0.5 0.125 0.217 0.033 0.467 0.058 0.75 0.075 0.3 0.017 0.533 0.025 0.7 0.025 0.183 0 0.442 0 0.775 0 0.35 0 0.542 0 0.575 0 0.050 0 0.233 0 0.55 0 0.333 0 0.592 0 0.775 0s0.417-0.008 0.7-0.025c0.3-0.017 0.55-0.042 0.75-0.075 0.217-0.033 0.392-0.075 0.525-0.125 0.517-0.217 0.875-0.575 1.075-1.075z"></path>
<path fill="none" opacity="0.4" stroke="#fff" style="stroke: var(--color1, #fff)" stroke-linejoin="miter" stroke-linecap="butt" stroke-miterlimit="4" stroke-width="0.8" d="M31.6 16c0 8.616-6.984 15.6-15.6 15.6s-15.6-6.984-15.6-15.6c0-8.616 6.984-15.6 15.6-15.6s15.6 6.984 15.6 15.6z"></path>
</symbol>
<symbol id="icon-tvit" viewBox="0 0 32 32">
<path fill="#fff" style="fill: var(--color1, #fff)" d="M21.075 13.4c0.017 0.067 0.025 0.175 0.025 0.325 0 0.883-0.167 1.767-0.5 2.65-0.333 0.867-0.808 1.667-1.425 2.4-0.6 0.717-1.383 1.3-2.35 1.75s-2.033 0.675-3.2 0.675c-1.467 0-2.808-0.392-4.025-1.175 0.183 0.017 0.392 0.025 0.625 0.025 1.217 0 2.308-0.375 3.275-1.125-0.583 0-1.1-0.167-1.55-0.5-0.433-0.35-0.733-0.783-0.9-1.3 0.167 0.017 0.325 0.025 0.475 0.025 0.233 0 0.467-0.025 0.7-0.075-0.4-0.083-0.758-0.25-1.075-0.5s-0.567-0.55-0.75-0.9c-0.183-0.367-0.275-0.758-0.275-1.175v-0.050c0.367 0.217 0.758 0.333 1.175 0.35-0.783-0.533-1.175-1.267-1.175-2.2 0-0.467 0.125-0.908 0.375-1.325 0.65 0.817 1.442 1.467 2.375 1.95 0.95 0.483 1.958 0.75 3.025 0.8-0.033-0.2-0.050-0.4-0.050-0.6 0-0.717 0.25-1.333 0.75-1.85 0.517-0.517 1.133-0.775 1.85-0.775 0.767 0 1.408 0.275 1.925 0.825 0.6-0.117 1.158-0.325 1.675-0.625-0.2 0.617-0.583 1.1-1.15 1.45 0.5-0.067 1-0.208 1.5-0.425-0.367 0.533-0.808 0.992-1.325 1.375z"></path>
<path fill="none" opacity="0.4" stroke="#fff" style="stroke: var(--color1, #fff)" stroke-linejoin="miter" stroke-linecap="butt" stroke-miterlimit="4" stroke-width="0.8" d="M31.6 16c0 8.616-6.984 15.6-15.6 15.6s-15.6-6.984-15.6-15.6c0-8.616 6.984-15.6 15.6-15.6s15.6 6.984 15.6 15.6z"></path>
</symbol>
<symbol id="icon-fb" viewBox="0 0 32 32">
<path fill="#fff" style="fill: var(--color1, #fff)" d="M18.975 16.8h-1.875v5.6h-2.5v-5.6h-2.025v-2.325h2.025v-1.75c0-0.667 0.125-1.233 0.375-1.7s0.6-0.817 1.050-1.050c0.467-0.25 1-0.375 1.6-0.375 0.267 0 0.55 0.017 0.85 0.050 0.3 0.017 0.533 0.042 0.7 0.075l0.25 0.025v1.975h-1c-0.467 0-0.808 0.125-1.025 0.375-0.2 0.233-0.3 0.525-0.3 0.875v1.5h2.225l-0.35 2.325z"></path>
<path fill="none" opacity="0.4" stroke="#fff" style="stroke: var(--color1, #fff)" stroke-linejoin="miter" stroke-linecap="butt" stroke-miterlimit="4" stroke-width="0.8" d="M31.6 16c0 8.616-6.984 15.6-15.6 15.6s-15.6-6.984-15.6-15.6c0-8.616 6.984-15.6 15.6-15.6s15.6 6.984 15.6 15.6z"></path>
</symbol>
</defs>
</svg>
